PathFileType	3	(X/Y/Z)	D:\minhoCalibration\240510\subject1_KPNP\preferred\preferred12.trc
DataRate	CameraRate	NumFrames	NumMarkers	Units	OrigDataRate	OrigDataStartFrame	OrigNumFrames
200.0	200.0	21	10	mm	200.0	408	280	
Frame#	Time	Left_Ankle_Outer1			Left_Ankle_Inner1			Left_Knee_Outer1			Left_Knee_Inner1			Left_Wrist1			Right_Wrist1			Right_Knee_Inner1			Right_Knee_Outer1			Right_Ankle_Inner1			Right_Ankle_Outer1			
		X1	Y1	Z1	X2	Y2	Z2	X3	Y3	Z3	X4	Y4	Z4	X5	Y5	Z5	X6	Y6	Z6	X7	Y7	Z7	X8	Y8	Z8	X9	Y9	Z9	X10	Y10	Z10	
408	2.03	-500.98956	144.10071	-538.20013	-531.88	155.34035	-489.83826	-310.01273	551.55933	-466.07858	-394.51535	538.20099	-394.18362	-409.83508	975.72833	-699.88049	-532.6792	1189.3148	-431.22595	-292.66058	1027.3695	-94.589371	-359.65884	1128.2178	-83.506844	-271.60779	1012.4887	347.38092	-249.24672	1123.9935	357.71478
409	2.035	-500.94534	144.47173	-537.60254	-532.17963	155.3851	-489.35083	-310.95105	550.37323	-461.91168	-393.14062	536.28674	-390.90906	-408.79892	974.86749	-693.85254	-534.40045	1190.3857	-426.27649	-288.1665	1031.8582	-94.777336	-350.02036	1130.0186	-83.055923	-273.2179	1007.6728	346.55203	-257.77893	1118.2808	364.12015
410	2.04	-500.28622	145.03329	-536.96631	-532.091	155.57413	-488.83765	-311.31863	550.46289	-457.50708	-392.83093	536.20807	-384.27682	-408.04761	973.86212	-688.00122	-536.7049	1191.1549	-422.34106	-286.59644	1033.5626	-95.314369	-340.53918	1128.5753	-83.70446	-272.21411	1003.3624	345.50272	-268.4649	1111.3091	370.39926
411	2.045	-499.2627	145.70186	-536.28247	-531.78113	155.81247	-488.56747	-311.82648	550.81409	-452.62436	-393.17197	534.93811	-380.38879	-407.36533	972.86304	-682.48126	-539.55505	1191.4358	-418.90591	-287.0354	1032.5303	-95.236076	-333.82953	1124.8881	-84.778305	-273.45746	997.46533	343.50552	-280.06171	1105.3586	375.43808
412	2.05	-497.93457	146.37289	-535.71771	-531.24243	156.08305	-488.29529	-313.23065	551.4942	-446.33069	-393.61197	534.59613	-377.49405	-406.59656	971.99097	-677.24548	-542.80267	1191.307	-415.93771	-287.4437	1030.2123	-95.063248	-332.60013	1122.4817	-84.950516	-280.96115	993.55029	344.74368	-289.78412	1099.4576	378.9325
413	2.055	-496.60532	146.98492	-535.026	-530.58624	156.35222	-488.26355	-314.02213	552.53583	-440.40585	-395.72662	535.90625	-372.09741	-405.77121	971.31091	-672.01074	-546.23462	1190.6763	-413.31146	-286.82617	1027.7015	-94.479401	-334.39755	1120.9003	-84.572937	-288.36353	987.41553	347.65912	-298.79102	1093.0973	381.40253
414	2.06	-495.20764	147.72122	-534.54041	-529.8103	156.75998	-488.20508	-314.80927	553.47443	-434.3208	-398.24133	535.83478	-369.40225	-404.66766	970.86731	-666.9411	-549.67969	1189.6917	-410.92789	-285.4588	1025.479	-93.010208	-333.78845	1119.5155	-83.431114	-293.46973	979.15594	350.95282	-307.75797	1086.4889	382.49222
415	2.065	-493.80441	148.4745	-534.18066	-529.17841	157.19543	-488.32135	-315.59369	554.2674	-428.40393	-401.42429	537.04028	-364.71011	-403.47757	970.58392	-661.91956	-553.57745	1188.8417	-408.18576	-283.65005	1023.9417	-91.925865	-331.89322	1118.0072	-81.257584	-304.86127	972.42365	351.06842	-316.92307	1078.6714	382.68085
416	2.07	-492.68597	149.08383	-533.59003	-528.79376	157.77499	-488.28082	-316.59583	554.9455	-422.71011	-404.58444	536.8988	-362.62067	-402.09476	970.43872	-657.01807	-557.45673	1187.811	-405.51108	-280.32224	1023.3088	-92.854996	-331.99585	1115.7812	-78.956863	-309.86169	960.72736	353.24643	-326.88965	1069.6233	383.22012
417	2.075	-492.0069	149.51259	-532.51099	-528.45062	158.0466	-488.20004	-317.88037	555.48145	-417.3418	-408.32092	537.95953	-358.32877	-400.59381	970.45703	-652.11334	-561.35693	1186.9727	-402.83047	-274.129	1023.9062	-96.245621	-333.47678	1113.109	-77.319496	-316.25482	951.08026	354.47583	-338.0304	1058.8593	383.67108
418	2.08	-491.17722	150.18657	-532.1662	-528.33667	158.23962	-488.03592	-319.19714	556.03424	-412.58267	-412.08829	538.05438	-355.65375	-399.12064	970.50958	-647.25317	-565.28107	1186.3887	-400.07373	-270.43634	1023.8828	-96.911247	-335.17029	1110.027	-75.409904	-325.79071	940.18097	352.56613	-349.46326	1046.5321	383.46219
419	2.085	-490.91824	150.65079	-531.48077	-528.5307	158.35541	-487.80991	-320.71732	556.54681	-408.37131	-415.29791	538.41644	-353.47366	-397.72061	970.76666	-642.47845	-569.02032	1185.8323	-397.43039	-267.54498	1022.2587	-94.731667	-337.04556	1106.5427	-73.030655	-335.04745	928.4585	349.9826	-362.32925	1033.3384	383.53674
420	2.09	-490.88419	151.08606	-530.7049	-528.79175	158.30542	-487.56384	-322.35074	556.96747	-404.68768	-418.17035	538.77911	-351.48779	-396.0253	971.29852	-638.30176	-572.69159	1185.2584	-394.62344	-265.57492	1018.2062	-91.764122	-338.96957	1102.8185	-70.456169	-341.06973	915.51013	347.70715	-374.81735	1018.7858	382.84155
421	2.095	-491.25143	151.33849	-529.93628	-529.67786	158.48573	-486.92764	-324.01685	557.21851	-401.53668	-420.71597	538.96564	-349.72729	-394.35486	972.06403	-634.2594	-576.00543	1184.3191	-391.91733	-264.48343	1012.4643	-90.012413	-340.42624	1098.7809	-67.755531	-349.90988	902.56213	344.4231	-386.56155	1004.1974	381.22708
422	2.1	-492.16196	151.41672	-528.77338	-530.31555	158.38905	-486.461	-325.53406	557.39709	-398.93332	-422.89249	538.64581	-348.53345	-392.68222	973.05542	-630.40192	-579.09363	1183.0876	-389.10666	-264.38681	1006.1891	-88.820145	-340.46399	1094.306	-65.028969	-358.60153	888.83813	341.92462	-398.2919	989.81616	378.91965
423	2.105	-492.9245	151.80466	-528.37097	-531.211	158.50459	-485.6459	-327.08011	557.50897	-396.82996	-424.78397	538.61145	-347.28433	-390.88165	974.21832	-626.59601	-581.80914	1181.4923	-386.44971	-265.10684	999.69385	-87.742699	-338.69128	1089.4141	-62.409107	-372.06735	875.92004	336.98004	-409.42252	975.7536	376.31308
424	2.11	-494.09268	151.93547	-527.65259	-532.46637	158.47839	-485.05212	-328.45258	557.57263	-395.2948	-426.41086	538.76215	-345.96304	-389.06522	975.40808	-622.85736	-584.4765	1179.9539	-383.49973	-266.08939	992.95343	-86.676163	-335.87061	1084.2112	-59.967133	-385.31799	861.32544	331.40152	-420.26221	961.44647	373.01462
425	2.115	-495.41107	152.02745	-526.93182	-533.61078	158.36581	-484.25195	-329.82837	557.5033	-394.30347	-427.81616	538.43829	-345.33881	-387.26523	976.71967	-619.11884	-586.48572	1178.2148	-380.90997	-267.09528	986.0827	-85.56411	-333.12415	1078.7395	-57.651714	-398.55124	846.82623	326.03116	-431.21506	946.53534	369.32086
426	2.12	-496.7276	152.07187	-526.36993	-534.75903	158.308	-483.6586	-331.15576	557.45508	-393.57852	-428.9989	538.30627	-344.80283	-385.43475	978.08643	-615.43622	-588.19983	1176.515	-378.50003	-267.86475	979.10565	-84.518158	-331.36459	1073.1229	-55.59362	-411.50348	832.62958	319.88867	-442.24484	931.45984	365.36426
427	2.125	-498.01562	152.07237	-526.00653	-536.08673	158.0666	-483.12216	-332.953	557.10132	-392.99866	-430.1326	538.14746	-344.28015	-383.60901	979.4801	-611.90747	-589.73566	1174.9373	-376.28839	-269.58716	972.22241	-83.189484	-330.83337	1067.3737	-53.786537	-425.28842	817.88214	312.9292	-453.14481	915.56696	360.63864
428	2.13	-499.46841	151.88539	-525.56281	-537.51373	158.06874	-482.45258	-334.16986	556.85846	-392.90024	-431.19867	537.70935	-344.03442	-381.85458	980.85724	-608.44183	-591.26141	1173.6084	-374.37463	-271.81665	965.44104	-81.971443	-331.43787	1061.46	-52.160912	-438.29126	803.19281	305.36487	-465.04364	899.4812	355.96341
